<svg preserveAspectRatio="none" width="100%" height="100%" overflow="visible" style="display: block;" viewBox="0 0 74.5 69" fill="none" xmlns="http://www.w3.org/2000/svg">
<g id="Container" opacity="0.1">
<path id="Icon" d="M20.25 46L26 36V36V36C23.25 36 20.8958 35.0208 18.9375 33.0625C16.9792 31.1042 16 28.75 16 26C16 23.25 16.9792 20.8958 18.9375 18.9375C20.8958 16.9792 23.25 16 26 16C28.75 16 31.1042 16.9792 33.0625 18.9375C35.0208 20.8958 36 23.25 36 26C36 26.9583 35.8854 27.8438 35.6562 28.6562C35.4271 29.4688 35.0833 30.25 34.625 31L26 46H20.25V46M42.75 46L48.5 36V36V36C45.75 36 43.3958 35.0208 41.4375 33.0625C39.4792 31.1042 38.5 28.75 38.5 26C38.5 23.25 39.4792 20.8958 41.4375 18.9375C43.3958 16.9792 45.75 16 48.5 16C51.25 16 53.6042 16.9792 55.5625 18.9375C57.5208 20.8958 58.5 23.25 58.5 26C58.5 26.9583 58.3854 27.8438 58.1562 28.6562C57.9271 29.4688 57.5833 30.25 57.125 31L48.5 46H42.75V46M26 29.75C27.0417 29.75 27.9271 29.3854 28.6562 28.6562C29.3854 27.9271 29.75 27.0417 29.75 26C29.75 24.9583 29.3854 24.0729 28.6562 23.3438C27.9271 22.6146 27.0417 22.25 26 22.25C24.9583 22.25 24.0729 22.6146 23.3438 23.3438C22.6146 24.0729 22.25 24.9583 22.25 26C22.25 27.0417 22.6146 27.9271 23.3438 28.6562C24.0729 29.3854 24.9583 29.75 26 29.75V29.75M48.5 29.75C49.5417 29.75 50.4271 29.3854 51.1562 28.6562C51.8854 27.9271 52.25 27.0417 52.25 26C52.25 24.9583 51.8854 24.0729 51.1562 23.3438C50.4271 22.6146 49.5417 22.25 48.5 22.25C47.4583 22.25 46.5729 22.6146 45.8438 23.3438C45.1146 24.0729 44.75 24.9583 44.75 26C44.75 27.0417 45.1146 27.9271 45.8438 28.6562C46.5729 29.3854 47.4583 29.75 48.5 29.75V29.75M48.5 26V26V26V26V26V26V26V26V26V26M26 26V26V26V26V26V26V26V26V26V26" fill="var(--fill-0, #1A1C1C)"/>
</g>
</svg>
